<?xml version="1.0" standalone="no"?><!DOCTYPE svg PUBLIC "-//W3C//DTD SVG 1.1//EN" "http://www.w3.org/Graphics/SVG/1.1/DTD/svg11.dtd"><svg t="1624769226567" class="icon" viewBox="0 0 1024 1024" version="1.1" xmlns="http://www.w3.org/2000/svg" p-id="1298" xmlns:xlink="http://www.w3.org/1999/xlink" width="200" height="200"><defs><style type="text/css"></style></defs><path d="M698.0096 632.064m-212.7872 0a212.7872 212.7872 0 1 0 425.5744 0 212.7872 212.7872 0 1 0-425.5744 0Z" fill="#FF8080" p-id="1299"></path><path d="M771.9936 870.4H255.3856c-82.6368 0-149.8624-67.2256-149.8624-149.8624V317.7472c0-82.6368 67.2256-149.9136 149.8624-149.9136h92.3136c29.2864 0 57.8048 10.3424 80.2816 29.184l88.5248 74.1888c4.1472 3.4816 9.472 5.4272 14.8992 5.4272h240.5376c82.6368 0 149.8624 67.2256 149.8624 149.9136v294.0416c0.0512 82.5856-67.1744 149.8112-149.8112 149.8112zM255.3856 219.0336c-54.4256 0-98.6624 44.288-98.6624 98.7136v402.7904c0 54.4256 44.288 98.6624 98.6624 98.6624h516.608c54.4256 0 98.6624-44.288 98.6624-98.6624V426.496c0-54.4256-44.288-98.7136-98.6624-98.7136H531.456c-17.4592 0-34.4064-6.1952-47.7696-17.3568L395.0592 236.288a73.94816 73.94816 0 0 0-47.36-17.2544H255.3856z" fill="#512C56" p-id="1300"></path><path d="M629.6064 550.7072h-90.368V460.3392c0-14.1312-11.4688-25.6-25.6-25.6s-25.6 11.4688-25.6 25.6v90.368H397.7216c-14.1312 0-25.6 11.4688-25.6 25.6s11.4688 25.6 25.6 25.6h90.368v90.368c0 14.1312 11.4688 25.6 25.6 25.6s25.6-11.4688 25.6-25.6v-90.368h90.368c14.1312 0 25.6-11.4688 25.6-25.6s-11.4688-25.6-25.6512-25.6z" fill="#512C56" p-id="1301"></path></svg>