<?xml version="1.0" standalone="no"?><!DOCTYPE svg PUBLIC "-//W3C//DTD SVG 1.1//EN" "http://www.w3.org/Graphics/SVG/1.1/DTD/svg11.dtd"><svg t="1625141560343" class="icon" viewBox="0 0 1024 1024" version="1.1" xmlns="http://www.w3.org/2000/svg" p-id="2813" xmlns:xlink="http://www.w3.org/1999/xlink" width="200" height="200"><defs><style type="text/css"></style></defs><path d="M424.42 531.9m-303.48 0a303.48 303.48 0 1 0 606.96 0 303.48 303.48 0 1 0-606.96 0Z" fill="#E03B5D" p-id="2814"></path><path d="M468.1 886c-225.52 0-408.98-183.5-408.98-409.02S242.58 68 468.1 68s408.98 183.46 408.98 408.98S693.62 886 468.1 886z m0-766c-196.84 0-356.98 160.14-356.98 356.98S271.26 834 468.1 834s356.98-160.14 356.98-356.98S664.94 120 468.1 120z" fill="#231815" p-id="2815"></path><path d="M217.36 636.7A26 26 0 0 1 194 622.14a311.58 311.58 0 0 1 142.44-416.98 26 26 0 1 1 22.9 46.68c-128.48 63.06-181.72 218.9-118.66 347.4a26 26 0 0 1-23.32 37.46z" fill="#231815" p-id="2816"></path><path d="M703.718732 766.595201m20.039406-20.039406l0.014142-0.014142q20.039406-20.039406 40.078812 0l150.104628 150.104627q20.039406 20.039406 0 40.078813l-0.014142 0.014142q-20.039406 20.039406-40.078813 0l-150.104627-150.104628q-20.039406-20.039406 0-40.078812Z" fill="#231815" p-id="2817"></path><path d="M894 946a29.22 29.22 0 0 1-20.74-8.58l-150.1-150.1a29.34 29.34 0 0 1 41.5-41.5l150 150.18a29.38 29.38 0 0 1 0 41.5A29.26 29.26 0 0 1 894 946z m-150.2-206.72a27.36 27.36 0 0 0-19.32 46.72l150 150a27.34 27.34 0 1 0 38.68-38.66l-150.1-150.1a27.14 27.14 0 0 0-19.26-7.96z" fill="#231815" p-id="2818"></path></svg>