<?xml version="1.0" standalone="no"?><!DOCTYPE svg PUBLIC "-//W3C//DTD SVG 1.1//EN" "http://www.w3.org/Graphics/SVG/1.1/DTD/svg11.dtd"><svg t="1625141737574" class="icon" viewBox="0 0 1024 1024" version="1.1" xmlns="http://www.w3.org/2000/svg" p-id="3277" xmlns:xlink="http://www.w3.org/1999/xlink" width="200" height="200"><defs><style type="text/css"></style></defs><path d="M635.1 629.62m-300.58 0a300.58 300.58 0 1 0 601.16 0 300.58 300.58 0 1 0-601.16 0Z" fill="#E03B5D" p-id="3278"></path><path d="M786 945.8H262.64a139.54 139.54 0 0 1-139.4-139.38V217.58a139.54 139.54 0 0 1 139.4-139.38H786a139.54 139.54 0 0 1 139.38 139.38v588.84A139.54 139.54 0 0 1 786 945.8zM262.64 130.2a87.48 87.48 0 0 0-87.4 87.38v588.84a87.48 87.48 0 0 0 87.4 87.38H786a87.48 87.48 0 0 0 87.38-87.38V217.58A87.48 87.48 0 0 0 786 130.2z" fill="#231815" p-id="3279"></path><path d="M279.2 278.2m28.34 0l209.96 0q28.34 0 28.34 28.34l0 0.02q0 28.34-28.34 28.34l-209.96 0q-28.34 0-28.34-28.34l0-0.02q0-28.34 28.34-28.34Z" fill="#231815" p-id="3280"></path><path d="M517.5 336h-210a29.36 29.36 0 0 1 0-58.7h210a29.36 29.36 0 0 1 0 58.7z m-210-56.7a27.36 27.36 0 0 0 0 54.7h210a27.36 27.36 0 0 0 0-54.7z" fill="#231815" p-id="3281"></path><path d="M279.2 504.3m28.34 0l410.32 0q28.34 0 28.34 28.34l0 0.02q0 28.34-28.34 28.34l-410.32 0q-28.34 0-28.34-28.34l0-0.02q0-28.34 28.34-28.34Z" fill="#231815" p-id="3282"></path><path d="M717.84 562H307.54a29.34 29.34 0 0 1 0-58.68h410.3a29.34 29.34 0 0 1 0 58.68z m-410.3-56.7a27.34 27.34 0 0 0 0 54.68h410.3a27.34 27.34 0 0 0 0-54.68z" fill="#231815" p-id="3283"></path><path d="M279.2 695.72m28.34 0l410.32 0q28.34 0 28.34 28.34l0 0.02q0 28.34-28.34 28.34l-410.32 0q-28.34 0-28.34-28.34l0-0.02q0-28.34 28.34-28.34Z" fill="#231815" p-id="3284"></path><path d="M717.84 753.4H307.54a29.36 29.36 0 0 1 0-58.7h410.3a29.36 29.36 0 0 1 0 58.7z m-410.3-56.7a27.36 27.36 0 0 0 0 54.7h410.3a27.36 27.36 0 0 0 0-54.7z" fill="#231815" p-id="3285"></path></svg>