<?xml version="1.0" standalone="no"?><!DOCTYPE svg PUBLIC "-//W3C//DTD SVG 1.1//EN" "http://www.w3.org/Graphics/SVG/1.1/DTD/svg11.dtd"><svg t="1625141570340" class="icon" viewBox="0 0 1024 1024" version="1.1" xmlns="http://www.w3.org/2000/svg" p-id="3123" xmlns:xlink="http://www.w3.org/1999/xlink" width="200" height="200"><defs><style type="text/css"></style></defs><path d="M572.34 543.18m-300.58 0a300.58 300.58 0 1 0 601.16 0 300.58 300.58 0 1 0-601.16 0Z" fill="#E03B5D" p-id="3124"></path><path d="M350.92 481.78h-65.42a139.54 139.54 0 0 1-139.4-139.38v-65.44a139.54 139.54 0 0 1 139.4-139.38h65.42a139.54 139.54 0 0 1 139.38 139.38v65.44a139.54 139.54 0 0 1-139.38 139.38z m-65.42-292.2a87.48 87.48 0 0 0-87.4 87.38v65.44a87.48 87.48 0 0 0 87.4 87.38h65.42a87.48 87.48 0 0 0 87.38-87.38v-65.44a87.48 87.48 0 0 0-87.38-87.38zM725.16 478.64h-65.44a139.54 139.54 0 0 1-139.38-139.38v-65.42a139.54 139.54 0 0 1 139.38-139.4h65.44a139.54 139.54 0 0 1 139.38 139.4v65.42a139.54 139.54 0 0 1-139.38 139.38z m-65.44-292.2a87.48 87.48 0 0 0-87.38 87.4v65.42a87.48 87.48 0 0 0 87.38 87.38h65.44a87.48 87.48 0 0 0 87.38-87.38v-65.42a87.48 87.48 0 0 0-87.38-87.4zM350.92 849.38h-65.42A139.56 139.56 0 0 1 146.1 710v-65.44a139.54 139.54 0 0 1 139.4-139.38h65.42a139.54 139.54 0 0 1 139.38 139.38V710a139.54 139.54 0 0 1-139.38 139.38z m-65.42-292.2a87.48 87.48 0 0 0-87.4 87.38V710a87.48 87.48 0 0 0 87.4 87.38h65.42A87.48 87.48 0 0 0 438.3 710v-65.44a87.48 87.48 0 0 0-87.38-87.38zM725.16 846.24h-65.44a139.54 139.54 0 0 1-139.38-139.38v-65.44A139.54 139.54 0 0 1 659.72 502h65.44a139.54 139.54 0 0 1 139.38 139.38v65.44a139.54 139.54 0 0 1-139.38 139.42zM659.72 554a87.48 87.48 0 0 0-87.38 87.38v65.44a87.48 87.48 0 0 0 87.38 87.38h65.44a87.48 87.48 0 0 0 87.38-87.38v-65.4A87.48 87.48 0 0 0 725.16 554z" fill="#231815" p-id="3125"></path></svg>