<?xml version="1.0" standalone="no"?><!DOCTYPE svg PUBLIC "-//W3C//DTD SVG 1.1//EN" "http://www.w3.org/Graphics/SVG/1.1/DTD/svg11.dtd"><svg t="1625141565378" class="icon" viewBox="0 0 1024 1024" version="1.1" xmlns="http://www.w3.org/2000/svg" p-id="2968" xmlns:xlink="http://www.w3.org/1999/xlink" width="200" height="200"><defs><style type="text/css"></style></defs><path d="M624.68 588.62m-300.58 0a300.58 300.58 0 1 0 601.16 0 300.58 300.58 0 1 0-601.16 0Z" fill="#E03B5D" p-id="2969"></path><path d="M772.46 960.64a54.12 54.12 0 0 1-25.68-6.5l-225.84-121.2a2.3 2.3 0 0 0-2 0L291 950.24a54.22 54.22 0 0 1-78.2-57.84l45.48-252.22a2.22 2.22 0 0 0-0.62-2l-182-180.46a54.26 54.26 0 0 1 30.84-92.26l254-34.68a2.22 2.22 0 0 0 1.7-1.2l115.32-228.84A54 54 0 0 1 526 70.92h0.48a54 54 0 0 1 48.32 30.66l111.44 230.78a2.32 2.32 0 0 0 1.68 1.24l253.3 39.02a54.22 54.22 0 0 1 29.28 92.76l-185.06 177.32a2.3 2.3 0 0 0-0.66 2L826 897.64a54.32 54.32 0 0 1-53.48 63z m-252.58-180a54.38 54.38 0 0 1 25.66 6.44l225.82 121.2a2 2 0 0 0 2.36-0.14 2 2 0 0 0 0.9-2.18l-41.16-252.94a54.2 54.2 0 0 1 16-47.86l185.04-177.32a2.24 2.24 0 0 0-1.2-3.82L680 385a54.22 54.22 0 0 1-40.58-30L528 124.18a2 2 0 0 0-2-1.26 2 2 0 0 0-2 1.24L408.56 353a54.18 54.18 0 0 1-41.08 29.32l-254 34.68a2 2 0 0 0-1.82 1.52 2 2 0 0 0 0.56 2.3l182 180.44a54.28 54.28 0 0 1 15.2 48.14L264 901.62a2.24 2.24 0 0 0 3.22 2.4l227.86-117.32a54.16 54.16 0 0 1 24.8-6.02z" fill="#231815" p-id="2970"></path><path d="M310.36 493.3a26 26 0 0 1-3.48-51.78l117.82-16 44.64-88.54a26 26 0 1 1 46.42 23.4l-44.82 88.82a51.2 51.2 0 0 1-38.8 27.7L314 493.04a26.88 26.88 0 0 1-3.64 0.26z" fill="#231815" p-id="2971"></path></svg>