<?xml version="1.0" standalone="no"?><!DOCTYPE svg PUBLIC "-//W3C//DTD SVG 1.1//EN" "http://www.w3.org/Graphics/SVG/1.1/DTD/svg11.dtd"><svg t="1625141511849" class="icon" viewBox="0 0 1024 1024" version="1.1" xmlns="http://www.w3.org/2000/svg" p-id="2037" xmlns:xlink="http://www.w3.org/1999/xlink" width="200" height="200"><defs><style type="text/css"></style></defs><path d="M604.22 591.06m-300.58 0a300.58 300.58 0 1 0 601.16 0 300.58 300.58 0 1 0-601.16 0Z" fill="#E03B5D" p-id="2038"></path><path d="M796.9 344.84a26 26 0 0 1-26-25.64c0-1.86-0.62-45.4-0.5-60.5a13.42 13.42 0 0 0-3.86-9.68 12 12 0 0 0-8.72-3.64H546a26 26 0 0 1 0-52h211.82a63.82 63.82 0 0 1 45.64 19.02 65.04 65.04 0 0 1 18.94 46.72c-0.12 14.52 0.5 58.9 0.5 59.36a26 26 0 0 1-25.64 26.36z" fill="#231815" p-id="2039"></path><path d="M790.9 878.74H225.28c-77.46 0-140.48-67.38-140.48-150.2V312c0-82.82 63.02-150.2 140.48-150.2h225.18c45.14 0 87.78 23.38 114 62.54l34.2 50.9c16.22 24.14 42 38.56 69.1 38.56h123.04c77.46 0 140.48 67.38 140.48 150.2v264.6c0.1 82.76-62.92 150.14-140.38 150.14zM225.28 216c-47.58 0-86.28 43-86.28 96v416.6c0 52.94 38.7 96 86.28 96h565.62c47.58 0 86.3-43.08 86.3-96V464c0-52.94-38.72-96-86.3-96h-123.04c-45.12 0-87.78-23.38-114-62.52l-34.2-50.9c-16.22-24.16-42-38.58-69.12-38.58z" fill="#231815" p-id="2040"></path></svg>