<?xml version="1.0" standalone="no"?><!DOCTYPE svg PUBLIC "-//W3C//DTD SVG 1.1//EN" "http://www.w3.org/Graphics/SVG/1.1/DTD/svg11.dtd"><svg t="1625141551574" class="icon" viewBox="0 0 1024 1024" version="1.1" xmlns="http://www.w3.org/2000/svg" p-id="2655" xmlns:xlink="http://www.w3.org/1999/xlink" width="200" height="200"><defs><style type="text/css"></style></defs><path d="M624.12 491.04m-300.58 0a300.58 300.58 0 1 0 601.16 0 300.58 300.58 0 1 0-601.16 0Z" fill="#E03B5D" p-id="2656"></path><path d="M838.96 858.72a80.86 80.86 0 0 1-52.18-19.36l-73.28-61.74a26.74 26.74 0 0 0-17.34-6.58H256c-77.44 0-140.44-67.28-140.44-150V328.14c0-82.7 63-150 140.44-150h526.4c77.46 0 140.46 67.28 140.46 150v442c0 35.64-19.18 66.7-50 81.06a80 80 0 0 1-33.9 7.52zM256 232.3c-47.58 0-86.3 43-86.3 95.84v292.92c0 52.86 38.72 95.84 86.3 95.84h440.16a81.3 81.3 0 0 1 52.24 19.32L821.68 798a25.3 25.3 0 0 0 28.2 4.14c9.08-4.22 18.76-14.82 18.76-32v-442c0-52.84-38.72-95.84-86.32-95.84z" fill="#231815" p-id="2657"></path><path d="M356.02 470.06m-53.32 0a53.32 53.32 0 1 0 106.64 0 53.32 53.32 0 1 0-106.64 0Z" fill="#231815" p-id="2658"></path><path d="M356 524.38A54.32 54.32 0 1 1 410.34 470 54.38 54.38 0 0 1 356 524.38z m0-106.64A52.32 52.32 0 1 0 408.34 470 52.38 52.38 0 0 0 356 417.74z" fill="#231815" p-id="2659"></path><path d="M512 470.06m-53.32 0a53.32 53.32 0 1 0 106.64 0 53.32 53.32 0 1 0-106.64 0Z" fill="#231815" p-id="2660"></path><path d="M512 524.38A54.32 54.32 0 1 1 566.32 470 54.38 54.38 0 0 1 512 524.38z m0-106.64A52.32 52.32 0 1 0 564.32 470 52.4 52.4 0 0 0 512 417.74z" fill="#231815" p-id="2661"></path><path d="M672.46 470.06m-53.32 0a53.32 53.32 0 1 0 106.64 0 53.32 53.32 0 1 0-106.64 0Z" fill="#231815" p-id="2662"></path><path d="M672.46 524.38A54.32 54.32 0 1 1 726.78 470a54.36 54.36 0 0 1-54.32 54.38z m0-106.64A52.32 52.32 0 1 0 724.78 470a52.38 52.38 0 0 0-52.32-52.26z" fill="#231815" p-id="2663"></path></svg>