<?xml version="1.0" standalone="no"?><!DOCTYPE svg PUBLIC "-//W3C//DTD SVG 1.1//EN" "http://www.w3.org/Graphics/SVG/1.1/DTD/svg11.dtd"><svg t="1625141535771" class="icon" viewBox="0 0 1024 1024" version="1.1" xmlns="http://www.w3.org/2000/svg" p-id="2346" xmlns:xlink="http://www.w3.org/1999/xlink" width="200" height="200"><defs><style type="text/css"></style></defs><path d="M614.8 618.7m-300.58 0a300.58 300.58 0 1 0 601.16 0 300.58 300.58 0 1 0-601.16 0Z" fill="#E03B5D" p-id="2347"></path><path d="M679.68 943.04H367.14a143.42 143.42 0 0 1-123.86-71.5L87.02 600.86a143.32 143.32 0 0 1 0-143l156.26-270.68a143.42 143.42 0 0 1 123.86-71.5h312.54a143.42 143.42 0 0 1 123.86 71.5l156.26 270.68a143.32 143.32 0 0 1 0 143l-156.26 270.68a143.42 143.42 0 0 1-123.86 71.5z m-312.54-768a84 84 0 0 0-72.54 41.88L138.34 487.48a84 84 0 0 0 0 83.76L294.6 842a84 84 0 0 0 72.54 41.88h312.54A84 84 0 0 0 752.22 842l156.26-270.66a84 84 0 0 0 0-83.76l-156.26-270.76a84 84 0 0 0-72.54-41.88z" fill="#231815" p-id="2348"></path><path d="M539.36 703.56a174.2 174.2 0 1 1 174.18-174.2 174.38 174.38 0 0 1-174.18 174.2z m0-289.12a114.94 114.94 0 1 0 114.92 114.92 115.06 115.06 0 0 0-114.92-114.92z" fill="#231815" p-id="2349"></path></svg>